# This file uses centimeters as units for non-parametric coordinates.

v 0.198961 0.004017 -0.084802
v 0.135749 0.000475 -0.149038
v 0.061803 0.000000 -0.190211
v -0.020906 0.000000 -0.198904
v -0.100000 0.000000 -0.173205
v -0.166114 0.000597 -0.119556
v -0.205982 0.000580 -0.041814
v -0.239479 0.001911 0.045750
v -0.187948 0.003772 0.142390
v -0.126049 0.005295 0.219133
v -0.021169 0.001489 0.217963
v 0.064188 0.002277 0.211931
v 0.159594 0.007807 0.168398
v 0.210737 0.006858 0.100538
v 0.203043 0.000753 -0.000543
v 0.201776 0.050350 -0.084334
v 0.135542 0.045758 -0.145980
v 0.060254 0.044504 -0.185442
v -0.020382 0.044504 -0.193917
v -0.098279 0.044649 -0.169285
v -0.180365 0.050037 -0.129086
v -0.211105 0.045326 -0.042555
v -0.238378 0.046350 0.048142
v -0.187478 0.051819 0.140903
v -0.122168 0.049667 0.212834
v -0.020233 0.046139 0.214097
v 0.063069 0.047040 0.209072
v 0.142145 0.048602 0.156131
v 0.198820 0.049873 0.094330
v 0.202057 0.046252 -0.001495
v 0.179765 0.108090 -0.076512
v 0.122439 0.108817 -0.134307
v 0.055683 0.094181 -0.171374
v -0.019166 0.086818 -0.179222
v -0.099061 0.088460 -0.159959
v -0.190461 0.095834 -0.131503
v -0.206429 0.085155 -0.036241
v -0.215718 0.092609 0.052743
v -0.171301 0.102239 0.126125
v -0.099669 0.094047 0.177214
v -0.019191 0.089346 0.188437
v 0.056082 0.088063 0.182247
v 0.116195 0.087104 0.131888
v 0.163850 0.088736 0.074361
v 0.184940 0.092251 -0.001019
v 0.144557 0.145475 -0.063963
v 0.104631 0.146348 -0.116203
v 0.048060 0.140571 -0.148728
v -0.024249 0.128892 -0.155891
v -0.115368 0.130652 -0.147339
v -0.188332 0.132664 -0.116198
v -0.190313 0.118517 -0.020225
v -0.185291 0.132363 0.056222
v -0.143680 0.141702 0.109286
v -0.083250 0.139146 0.153523
v -0.019133 0.133863 0.167263
v 0.046763 0.125459 0.149321
v 0.096656 0.123687 0.109481
v 0.136967 0.126327 0.061054
v 0.156645 0.136338 -0.000068
v 0.113633 0.160121 -0.050736
v 0.078564 0.160223 -0.092958
v 0.020743 0.159713 -0.119599
v -0.054804 0.158841 -0.126306
v -0.121075 0.162004 -0.119330
v -0.165485 0.159111 -0.081908
v -0.163847 0.147895 -0.002807
v -0.154383 0.158768 0.053351
v -0.116923 0.168239 0.096586
v -0.069348 0.171976 0.132406
v -0.017395 0.168116 0.140637
v 0.037825 0.157783 0.120321
v 0.081091 0.155717 0.090546
v 0.112696 0.156936 0.050177
v 0.124698 0.159321 0.000000
v 0.069364 0.168670 -0.035884
v 0.030506 0.169177 -0.066107
v -0.029408 0.176108 -0.085447
v -0.086491 0.181614 -0.088632
v -0.123817 0.180602 -0.076617
v -0.132319 0.175580 -0.040639
v -0.120656 0.174104 0.003400
v -0.109421 0.178825 0.044983
v -0.086729 0.186941 0.080284
v -0.053506 0.192407 0.103381
v -0.015321 0.188922 0.105181
v 0.024955 0.181975 0.087651
v 0.057805 0.179610 0.065099
v 0.079239 0.174235 0.035294
v 0.084772 0.170093 -0.000119
v 0.013190 0.179600 -0.017036
v -0.012344 0.183656 -0.031911
v -0.043129 0.191820 -0.039411
v -0.071616 0.194162 -0.038202
v -0.089457 0.192589 -0.028468
v -0.092680 0.191858 -0.011173
v -0.084276 0.192518 0.010727
v -0.070816 0.194586 0.031789
v -0.053907 0.197391 0.047997
v -0.034135 0.198884 0.057775
v -0.013090 0.198218 0.059140
v 0.007193 0.196590 0.051813
v 0.023434 0.193337 0.038257
v 0.031615 0.184312 0.020947
v 0.028519 0.180155 0.001681
v -0.032637 0.200656 0.012213
vt 0.928697 0.698762
vt 0.801670 0.833278
vt 0.801254 0.826875
vt 0.934354 0.697783
vt 0.653075 0.919499
vt 0.649961 0.909512
vt 0.486869 0.937702
vt 0.487922 0.927260
vt 0.327927 0.883886
vt 0.331385 0.875678
vt 0.195069 0.771541
vt 0.166432 0.791497
vt 0.114952 0.608742
vt 0.104657 0.610295
vt 0.047639 0.425376
vt 0.049851 0.420368
vt 0.151194 0.223003
vt 0.152138 0.226118
vt 0.275581 0.062298
vt 0.283378 0.075490
vt 0.486338 0.064748
vt 0.488219 0.072844
vt 0.657866 0.077379
vt 0.655617 0.083367
vt 0.849588 0.168542
vt 0.814522 0.194229
vt 0.952361 0.310646
vt 0.928412 0.323645
vt 0.936899 0.522317
vt 0.934917 0.524311
vt 0.774923 0.802429
vt 0.890122 0.681402
vt 0.640775 0.880053
vt 0.490365 0.896486
vt 0.329813 0.856148
vt 0.146144 0.796559
vt 0.114054 0.597072
vt 0.095389 0.410733
vt 0.184645 0.257065
vt 0.328592 0.150081
vt 0.490314 0.126579
vt 0.641577 0.139540
vt 0.762376 0.244997
vt 0.858140 0.365463
vt 0.900520 0.523314
vt 0.739138 0.764519
vt 0.819369 0.655124
vt 0.625458 0.832630
vt 0.480150 0.847629
vt 0.297044 0.829720
vt 0.150421 0.764509
vt 0.146439 0.563534
vt 0.156532 0.403446
vt 0.240151 0.292326
vt 0.361585 0.199690
vt 0.490430 0.170917
vt 0.622850 0.208491
vt 0.723111 0.291919
vt 0.804117 0.393329
vt 0.843661 0.521322
vt 0.686756 0.715843
vt 0.757226 0.627426
vt 0.570563 0.771631
vt 0.418750 0.785676
vt 0.285575 0.771067
vt 0.196332 0.692703
vt 0.199624 0.527058
vt 0.218643 0.409459
vt 0.293919 0.318921
vt 0.389523 0.243912
vt 0.493923 0.226674
vt 0.604889 0.269218
vt 0.691834 0.331570
vt 0.755344 0.416105
vt 0.779463 0.521181
vt 0.590181 0.659614
vt 0.668269 0.596325
vt 0.469783 0.700114
vt 0.355073 0.706783
vt 0.280066 0.681622
vt 0.262981 0.606283
vt 0.286418 0.514061
vt 0.308994 0.426981
vt 0.354595 0.353059
vt 0.421358 0.304692
vt 0.498091 0.300923
vt 0.579027 0.337632
vt 0.645039 0.384859
vt 0.688111 0.447271
vt 0.699230 0.521430
vt 0.504074 0.588005
vt 0.555386 0.556855
vt 0.442211 0.603709
vt 0.384964 0.601180
vt 0.349114 0.580794
vt 0.342636 0.544577
vt 0.359523 0.498717
vt 0.386572 0.454611
vt 0.420552 0.420671
vt 0.460283 0.400194
vt 0.502575 0.397337
vt 0.543333 0.412680
vt 0.575971 0.441067
vt 0.592410 0.477315
vt 0.586189 0.517661
vt 0.463294 0.495605
vn 0.906409 -0.005800 -0.422362
vn 0.590976 0.047198 -0.805307
vn 0.583374 0.179545 -0.792110
vn 0.891643 0.192759 -0.409655
vn 0.297276 0.099273 -0.949617
vn 0.292159 0.196318 -0.936003
vn -0.102495 0.108202 -0.988831
vn -0.093357 0.195466 -0.976257
vn -0.431141 -0.015219 -0.902156
vn -0.377048 0.062770 -0.924064
vn -0.745919 -0.181478 -0.640836
vn -0.742014 -0.093310 -0.663859
vn -0.923272 -0.135798 -0.359345
vn -0.953270 -0.008522 -0.302000
vn -0.994677 -0.013322 0.102182
vn -0.976908 0.168072 0.131917
vn -0.826101 0.048820 0.561403
vn -0.771562 0.278827 0.571793
vn -0.411391 0.112049 0.904545
vn -0.376077 0.354334 0.856162
vn 0.030754 0.096256 0.994881
vn 0.021090 0.339511 0.940366
vn 0.282355 0.172769 0.943624
vn 0.289182 0.378499 0.879268
vn 0.596622 0.320904 0.735570
vn 0.554475 0.490779 0.672082
vn 0.920180 0.271880 0.281691
vn 0.837706 0.454413 0.302917
vn 0.997318 0.067462 -0.028376
vn 0.964883 0.262017 0.018643
vn 0.537250 0.410051 -0.737035
vn 0.804957 0.472686 -0.358625
vn 0.249844 0.370531 -0.894587
vn -0.066740 0.347703 -0.935226
vn -0.264910 0.226534 -0.937286
vn -0.748171 0.146513 -0.647128
vn -0.952902 0.257040 -0.160960
vn -0.873192 0.457621 0.167688
vn -0.646272 0.526145 0.552723
vn -0.296228 0.565687 0.769576
vn 0.018082 0.540583 0.841097
vn 0.308572 0.595067 0.742078
vn 0.520738 0.643123 0.561450
vn 0.705164 0.620521 0.343072
vn 0.855743 0.507798 0.099223
vn 0.408136 0.724720 -0.555163
vn 0.625257 0.746479 -0.227647
vn 0.163617 0.653525 -0.739010
vn -0.044407 0.555812 -0.830121
vn -0.218431 0.488232 -0.844936
vn -0.741722 0.506119 -0.440104
vn -0.842876 0.537490 -0.025776
vn -0.741615 0.648330 0.172266
vn -0.555835 0.633728 0.537993
vn -0.297670 0.568302 0.767089
vn 0.060247 0.558300 0.827449
vn 0.366107 0.618658 0.695146
vn 0.541981 0.628991 0.557339
vn 0.671533 0.626238 0.396068
vn 0.728776 0.670702 0.138000
vn 0.181494 0.950185 -0.253395
vn 0.309422 0.943125 -0.121543
vn 0.080388 0.897963 -0.432668
vn -0.008130 0.796449 -0.604651
vn -0.215751 0.787521 -0.577288
vn -0.628033 0.766374 -0.135077
vn -0.650095 0.759188 0.031779
vn -0.567532 0.816241 0.107978
vn -0.471809 0.789358 0.392824
vn -0.252694 0.734181 0.630178
vn 0.147894 0.715552 0.682725
vn 0.381522 0.710902 0.590813
vn 0.486933 0.723136 0.489867
vn 0.544877 0.779528 0.308940
vn 0.470038 0.879933 0.069149
vn 0.152232 0.973157 -0.172599
vn 0.161199 0.980035 -0.116388
vn 0.115389 0.942757 -0.312881
vn -0.018985 0.927124 -0.374274
vn -0.279299 0.925717 -0.255031
vn -0.494688 0.866643 0.064916
vn -0.485461 0.872086 0.061588
vn -0.418428 0.906928 0.048980
vn -0.342592 0.919952 0.190575
vn -0.135892 0.927492 0.348271
vn 0.180397 0.895042 0.407868
vn 0.312837 0.870421 0.380132
vn 0.363089 0.897212 0.251349
vn 0.344769 0.936715 0.060828
vn 0.239311 0.969084 -0.060060
vn 0.224140 0.954801 -0.195236
vn 0.192618 0.967601 -0.163236
vn 0.155330 0.959152 -0.236432
vn -0.006225 0.977551 -0.210607
vn -0.229765 0.970821 -0.068664
vn -0.374357 0.923024 0.088783
vn -0.357158 0.931259 0.072076
vn -0.307214 0.950835 0.039150
vn -0.218907 0.973970 0.058844
vn -0.049690 0.991664 0.118882
vn 0.134163 0.976243 0.170144
vn 0.216473 0.963324 0.158579
vn 0.277845 0.960507 -0.015083
vn 0.261421 0.952270 -0.157611
vn 0.197570 0.967709 -0.156545
vn 0.094617 0.988382 -0.118948
f 1/1/1 2/2/2 17/3/3 16/4/4
f 2/2/2 3/5/5 18/6/6 17/3/3
f 3/5/5 4/7/7 19/8/8 18/6/6
f 4/7/7 5/9/9 20/10/10 19/8/8
f 5/9/9 6/11/11 21/12/12 20/10/10
f 6/11/11 7/13/13 22/14/14 21/12/12
f 7/13/13 8/15/15 23/16/16 22/14/14
f 8/15/15 9/17/17 24/18/18 23/16/16
f 9/17/17 10/19/19 25/20/20 24/18/18
f 10/19/19 11/21/21 26/22/22 25/20/20
f 11/21/21 12/23/23 27/24/24 26/22/22
f 12/23/23 13/25/25 28/26/26 27/24/24
f 13/25/25 14/27/27 29/28/28 28/26/26
f 14/27/27 15/29/29 30/30/30 29/28/28
f 15/29/29 1/1/1 16/4/4 30/30/30
f 16/4/4 17/3/3 32/31/31 31/32/32
f 17/3/3 18/6/6 33/33/33 32/31/31
f 18/6/6 19/8/8 34/34/34 33/33/33
f 19/8/8 20/10/10 35/35/35 34/34/34
f 20/10/10 21/12/12 36/36/36 35/35/35
f 21/12/12 22/14/14 37/37/37 36/36/36
f 22/14/14 23/16/16 38/38/38 37/37/37
f 23/16/16 24/18/18 39/39/39 38/38/38
f 24/18/18 25/20/20 40/40/40 39/39/39
f 25/20/20 26/22/22 41/41/41 40/40/40
f 26/22/22 27/24/24 42/42/42 41/41/41
f 27/24/24 28/26/26 43/43/43 42/42/42
f 28/26/26 29/28/28 44/44/44 43/43/43
f 29/28/28 30/30/30 45/45/45 44/44/44
f 30/30/30 16/4/4 31/32/32 45/45/45
f 31/32/32 32/31/31 47/46/46 46/47/47
f 32/31/31 33/33/33 48/48/48 47/46/46
f 33/33/33 34/34/34 49/49/49 48/48/48
f 34/34/34 35/35/35 50/50/50 49/49/49
f 35/35/35 36/36/36 51/51/51 50/50/50
f 36/36/36 37/37/37 52/52/52 51/51/51
f 37/37/37 38/38/38 53/53/53 52/52/52
f 38/38/38 39/39/39 54/54/54 53/53/53
f 39/39/39 40/40/40 55/55/55 54/54/54
f 40/40/40 41/41/41 56/56/56 55/55/55
f 41/41/41 42/42/42 57/57/57 56/56/56
f 42/42/42 43/43/43 58/58/58 57/57/57
f 43/43/43 44/44/44 59/59/59 58/58/58
f 44/44/44 45/45/45 60/60/60 59/59/59
f 45/45/45 31/32/32 46/47/47 60/60/60
f 46/47/47 47/46/46 62/61/61 61/62/62
f 47/46/46 48/48/48 63/63/63 62/61/61
f 48/48/48 49/49/49 64/64/64 63/63/63
f 49/49/49 50/50/50 65/65/65 64/64/64
f 50/50/50 51/51/51 66/66/66 65/65/65
f 51/51/51 52/52/52 67/67/67 66/66/66
f 52/52/52 53/53/53 68/68/68 67/67/67
f 53/53/53 54/54/54 69/69/69 68/68/68
f 54/54/54 55/55/55 70/70/70 69/69/69
f 55/55/55 56/56/56 71/71/71 70/70/70
f 56/56/56 57/57/57 72/72/72 71/71/71
f 57/57/57 58/58/58 73/73/73 72/72/72
f 58/58/58 59/59/59 74/74/74 73/73/73
f 59/59/59 60/60/60 75/75/75 74/74/74
f 60/60/60 46/47/47 61/62/62 75/75/75
f 61/62/62 62/61/61 77/76/76 76/77/77
f 62/61/61 63/63/63 78/78/78 77/76/76
f 63/63/63 64/64/64 79/79/79 78/78/78
f 64/64/64 65/65/65 80/80/80 79/79/79
f 65/65/65 66/66/66 81/81/81 80/80/80
f 66/66/66 67/67/67 82/82/82 81/81/81
f 67/67/67 68/68/68 83/83/83 82/82/82
f 68/68/68 69/69/69 84/84/84 83/83/83
f 69/69/69 70/70/70 85/85/85 84/84/84
f 70/70/70 71/71/71 86/86/86 85/85/85
f 71/71/71 72/72/72 87/87/87 86/86/86
f 72/72/72 73/73/73 88/88/88 87/87/87
f 73/73/73 74/74/74 89/89/89 88/88/88
f 74/74/74 75/75/75 90/90/90 89/89/89
f 75/75/75 61/62/62 76/77/77 90/90/90
f 76/77/77 77/76/76 92/91/91 91/92/92
f 77/76/76 78/78/78 93/93/93 92/91/91
f 78/78/78 79/79/79 94/94/94 93/93/93
f 79/79/79 80/80/80 95/95/95 94/94/94
f 80/80/80 81/81/81 96/96/96 95/95/95
f 81/81/81 82/82/82 97/97/97 96/96/96
f 82/82/82 83/83/83 98/98/98 97/97/97
f 83/83/83 84/84/84 99/99/99 98/98/98
f 84/84/84 85/85/85 100/100/100 99/99/99
f 85/85/85 86/86/86 101/101/101 100/100/100
f 86/86/86 87/87/87 102/102/102 101/101/101
f 87/87/87 88/88/88 103/103/103 102/102/102
f 88/88/88 89/89/89 104/104/104 103/103/103
f 89/89/89 90/90/90 105/105/105 104/104/104
f 90/90/90 76/77/77 91/92/92 105/105/105
f 91/92/92 92/91/91 106/106/106
f 92/91/91 93/93/93 106/106/106
f 93/93/93 94/94/94 106/106/106
f 94/94/94 95/95/95 106/106/106
f 95/95/95 96/96/96 106/106/106
f 96/96/96 97/97/97 106/106/106
f 97/97/97 98/98/98 106/106/106
f 98/98/98 99/99/99 106/106/106
f 99/99/99 100/100/100 106/106/106
f 100/100/100 101/101/101 106/106/106
f 101/101/101 102/102/102 106/106/106
f 102/102/102 103/103/103 106/106/106
f 103/103/103 104/104/104 106/106/106
f 104/104/104 105/105/105 106/106/106
f 105/105/105 91/92/92 106/106/106
